<?xml version="1.0" standalone="no"?>
<!DOCTYPE svg PUBLIC "-//W3C//DTD SVG 20010904//EN"
 "http://www.w3.org/TR/2001/REC-SVG-20010904/DTD/svg10.dtd">
<svg version="1.0" xmlns="http://www.w3.org/2000/svg"
 width="700.000000pt" height="700.000000pt" viewBox="0 0 700.000000 700.000000"
 preserveAspectRatio="xMidYMid meet">
<metadata>
Created by potrace 1.11, written by Peter Selinger 2001-2013
</metadata>
<g transform="translate(0.000000,700.000000) scale(0.100000,-0.100000)"
fill="#000000" stroke="none">
<path d="M1433 6797 c-4 -6 -7 -1187 -3 -1294 0 -8 144 -11 573 -11 316 0 578
3 583 6 5 4 9 267 9 654 l0 648 -55 0 c-568 5 -1103 3 -1107 -3z m955 -651
l-3 -450 -375 0 -375 -1 -3 451 -2 451 380 0 380 0 -2 -451z"/>
<path d="M2943 6802 l-23 -3 0 -654 0 -653 583 2 582 1 2 653 2 652 -82 0
c-645 4 -1046 4 -1064 2z m942 -654 c0 -247 -2 -448 -5 -449 -20 -4 -750 -3
-751 1 -3 11 -5 886 -2 891 1 4 173 6 380 5 l378 -1 0 -447z"/>
<path d="M4525 6802 l-110 -3 0 -652 0 -652 583 -2 582 -2 0 237 c1 805 0
1065 -3 1069 -5 4 -895 9 -1052 5z m854 -654 c0 -246 -3 -448 -7 -449 -31 -5
-745 -3 -748 2 -4 7 -5 247 -4 685 l0 212 379 -1 380 0 0 -449z"/>
<path d="M1439 5032 c-13 -2 -16 -308 -9 -1247 l0 -60 580 0 c319 0 580 2 581
5 7 33 2 1293 -5 1298 -10 5 -1118 10 -1147 4z m951 -652 l0 -450 -380 0 -380
0 0 450 0 450 380 0 380 0 0 -450z"/>
<path d="M2930 5032 c-7 -3 -10 -230 -10 -655 l0 -652 582 0 583 1 2 652 c2
505 0 652 -10 653 -35 3 -1139 3 -1147 1z m955 -652 l0 -445 -380 -3 -380 -2
0 450 0 450 380 -2 380 -3 0 -445z"/>
<path d="M4421 5030 c-4 -3 -7 -297 -6 -655 l0 -649 583 -1 582 0 0 155 c1
841 0 1143 -5 1148 -7 7 -1144 9 -1154 2z m958 -650 l0 -450 -380 0 -379 0 0
43 c-1 44 0 633 0 775 l0 82 380 0 379 0 0 -450z"/>
<path d="M1429 3210 c-3 -342 0 -1243 5 -1247 8 -9 1145 -8 1153 1 4 4 8 298
8 654 l0 648 -582 0 -583 0 -1 -56z m954 -149 c4 -1 7 -203 7 -450 l0 -449
-380 -1 -380 -1 0 448 c0 247 2 451 4 453 3 3 711 3 749 0z"/>
<path d="M2920 2613 c0 -515 3 -653 13 -654 16 -1 1106 -1 1134 0 l22 1 -2
653 -2 652 -582 0 -583 1 0 -653z m955 448 c7 -1 10 -155 10 -448 l0 -448
-380 0 -380 0 0 443 c0 331 3 445 12 450 8 5 657 7 738 3z"/>
<path d="M4419 3260 c-1 -3 -2 -296 -3 -652 -1 -430 2 -648 9 -649 49 -4 1146
-1 1150 3 8 8 7 1290 -1 1297 -7 7 -1153 9 -1155 1z m953 -199 c4 -1 7 -203 7
-450 l0 -449 -380 -1 -379 -1 0 82 c0 142 -1 731 0 775 0 38 2 42 28 45 21 2
698 1 724 -1z"/>
<path d="M2920 844 l0 -654 584 0 585 0 0 654 0 655 -585 0 -584 0 0 -655z
m966 11 c0 -242 -1 -445 -3 -451 -5 -15 -751 -15 -756 0 -3 10 -1 873 2 886 0
3 171 5 379 5 l377 0 1 -440z"/>
</g>
</svg>
